<?xml version="1.0" ?><svg height="24" version="1.1" width="24" xmlns="http://www.w3.org/2000/svg" xmlns:cc="http://creativecommons.org/ns#" xmlns:dc="http://purl.org/dc/elements/1.1/" xmlns:rdf="http://www.w3.org/1999/02/22-rdf-syntax-ns#"><g transform="translate(0 -1028.4)"><g><path d="m4 1031.4c-1.1046 0-2 0.9-2 2v16c0 1.1 0.8954 2 2 2h16c1.105 0 2-0.9 2-2v-16c0-1.1-0.895-2-2-2h-16z" fill="#30497b"/><path d="m4 2c-1.1046 0-2 0.8954-2 2v16c0 1.105 0.8954 2 2 2h16c1.105 0 2-0.895 2-2v-16c0-1.1046-0.895-2-2-2h-16z" fill="#3b5998" transform="translate(0 1028.4)"/><path d="m17 1034.4c-2.209 0-4 1.8-4 4v3h-2v3h2v7h3v-7h2.454l0.546-3h-3v-3c0-0.6 0.448-1 1-1h2v-3z" fill="#30497b"/><path d="m17 5c-2.209 0-4 1.7909-4 4v3h-2v3h2v7h3v-7h2.454l0.546-3h-3v-3c0-0.5523 0.448-1 1-1h2v-3z" fill="#ecf0f1" transform="translate(0 1028.4)"/><rect fill="#bdc3c7" height="1" transform="translate(0 1028.4)" width="3" x="13" y="22"/></g></g></svg>